<?xml version="1.0" encoding="UTF-8"?>
<svg width="37px" height="42px" viewBox="0 0 37 42" version="1.1" xmlns="http://www.w3.org/2000/svg" xmlns:xlink="http://www.w3.org/1999/xlink">
    <!-- Generator: Sketch 63.1 (92452) - https://sketch.com -->
    <title>Group 9</title>
    <desc>Created with Sketch.</desc>
    <g id="Page-1" stroke="none" stroke-width="1" fill="none" fill-rule="evenodd">
        <g id="Desktop-HD-Copy-29" transform="translate(-412.000000, -554.000000)">
            <g id="Group-9" transform="translate(412.000000, 554.000000)">
                <polygon id="Fill-1" fill="#6916A5" points="32.9829 28.8078 26.7789 34.9298 17.0169 34.9298 11.6949 40.1808 11.6949 34.9298 3.8959 34.9298 3.8959 9.5708 32.9829 9.5708"></polygon>
                <path d="M32.9829,27.903 L26.7789,34.025 L17.0169,34.025 L11.6949,39.276 L11.6949,34.025 L3.8959,34.025 L3.8959,8.666 L32.9829,8.666 L32.9829,27.903 Z M0.4589,5.156 L0.4589,37.539 L8.4289,37.539 L8.4289,41.919 L13.6269,41.919 L18.0659,37.539 L28.5939,37.539 L36.5399,29.645 L36.5399,5.156 L0.4589,5.156 Z" id="Fill-2" fill="#211256"></path>
                <path d="M0.4588,5.1565 L0.4588,37.5395 L8.4288,37.5395 L8.4288,41.9185 L13.6268,41.9185 L18.0658,37.5395 L28.5948,37.5395 L36.5398,29.6445 L36.5398,5.1565 L0.4588,5.1565 Z M3.8958,8.6655 L32.9828,8.6655 L32.9828,27.9035 L26.7788,34.0245 L17.0168,34.0245 L11.6948,39.2765 L11.6948,34.0245 L3.8958,34.0245 L3.8958,8.6655 Z" id="Fill-3" fill="#211256"></path>
                <polygon id="Fill-4" fill="#4CE0AA" points="32.9829 21.6623 26.7789 27.7843 17.0169 27.7843 11.6949 33.0353 11.6949 27.7843 3.8959 27.7843 3.8959 3.4403 32.9829 3.4403"></polygon>
                <path d="M32.9829,21.7726 L26.7789,27.8946 L17.0169,27.8946 L11.6949,33.1466 L11.6949,27.8946 L3.8959,27.8946 L3.8959,3.5506 L32.9829,3.5506 L32.9829,21.7726 Z M0.4589,0.0416 L0.4589,31.4086 L8.4289,31.4086 L8.4289,35.7896 L13.6269,35.7896 L18.0659,31.4086 L28.5939,31.4086 L36.5399,23.5146 L36.5399,0.0416 L0.4589,0.0416 Z" id="Fill-5" fill="#211256"></path>
                <path d="M0.4588,0.0418 L0.4588,31.4088 L8.4288,31.4088 L8.4288,35.7888 L13.6268,35.7888 L18.0658,31.4088 L28.5948,31.4088 L36.5398,23.5148 L36.5398,0.0418 L0.4588,0.0418 Z M3.8958,3.5508 L32.9828,3.5508 L32.9828,21.7718 L26.7788,27.8948 L17.0168,27.8948 L11.6948,33.1468 L11.6948,27.8948 L3.8958,27.8948 L3.8958,3.5508 Z" id="Fill-6" fill="#211256"></path>
                <path d="M13.564,20.466 L17.265,20.466 L17.265,9.708 L13.564,9.708 L13.564,20.466 Z M23.695,20.466 L27.396,20.466 L27.396,9.708 L23.695,9.708 L23.695,20.466 Z" id="Fill-7" fill="#211256"></path>
                <path d="M23.695,20.466 L27.396,20.466 L27.396,9.707 L23.695,9.707 L23.695,20.466 Z M13.564,20.466 L17.266,20.466 L17.266,9.707 L13.564,9.707 L13.564,20.466 Z" id="Fill-8" fill="#211256"></path>
            </g>
        </g>
    </g>
</svg>