<?xml version="1.0" encoding="utf-8"?>
<!-- Generator: Adobe Illustrator 25.2.1, SVG Export Plug-In . SVG Version: 6.00 Build 0)  -->
<svg version="1.1" id="Camada_1" xmlns="http://www.w3.org/2000/svg" xmlns:xlink="http://www.w3.org/1999/xlink" x="0px" y="0px"
	 viewBox="0 0 83 23" style="enable-background:new 0 0 83 23;" xml:space="preserve">
<style type="text/css">
	.st0{opacity:0.63;}
	.st1{fill:#FFFFFF;}
</style>
<desc>Created with Sketch.</desc>
<g class="st0">
	<path class="st1" d="M81.2,15.9c-0.2-0.9-0.7-1.8-1.5-2.3c-0.2-0.1-0.4-0.2-0.6-0.3c0.2-0.1,0.4-0.3,0.5-0.4
		c1.5-1.3,1.6-3.6,0.2-5.1c-0.1-0.1-0.2-0.2-0.3-0.3c-1.6-1.6-3.8-2.5-6.1-2.5c-3.3,0-6.3,1.9-7.8,4.9c-0.1-0.9-0.6-1.8-1.4-2.4
		c0.9-0.7,1.4-1.7,1.4-2.9V4.5c0.1-2-1.4-3.7-3.3-3.8c-2-0.1-3.7,1.4-3.8,3.3c0,0.2,0,0.3,0,0.5v0.1c0,1.1,0.4,2,1.2,2.7
		c-0.3,0.1-0.7,0.4-1,0.9c0,0.1-0.1,0.2-0.1,0.4c-0.2-1.3-1.1-2.5-2.3-3.2c-0.4-2.1-2.3-3.7-4.5-3.6c-1.2,0-2.3,0.5-3.1,1.4
		c-0.5,0.5-0.9,1.2-1,1.9C47.6,5,47.3,4.9,47,4.8c-0.5-0.1-1-0.2-1.5-0.2l-0.1,0c-0.7,0-1.4,0.2-2.1,0.5c-0.7-0.4-1.5-0.7-2.2-0.7
		l0,0c-1,0-2.1,0.4-2.9,1.1c-0.8-0.6-1.7-0.9-2.7-0.9c-0.8,0-1.6,0.2-2.2,0.5c-0.9-0.5-1.9-0.7-3-0.7c0,0-0.1,0-0.2,0l-0.2,0
		c-2.3,0-4.5,1-6.2,2.7c-1.2,1.3-2,2.8-2.3,4.5c-0.1-0.4-0.3-0.6-0.3-0.5c0,0,0-0.1-0.1-0.1c-0.4-0.7-0.9-1.3-1.6-1.8
		c0.2-0.1,0.3-0.2,0.4-0.3c1.4-1.4,1.5-3.6,0.1-5.1c-2.2-2.3-5.4-2.6-7.9-2.6C6.3,1.4,1.7,6.2,1.7,12c0.1,5.7,4.7,10.3,10.3,10.3
		c3.7,0,6.8-1.6,8.7-4.6c0.1-0.2,0.3-0.4,0.4-0.7c0,0,0,0.1,0,0.1c0.2-0.4,0.3-0.8,0.4-1.2c0.4,1.4,1.2,2.7,2.3,3.7
		c1.7,1.6,3.8,2.5,6.1,2.5l0.2,0c1.1,0,2.2-0.2,3.1-0.6c0.6,0.4,1.3,0.6,2.1,0.6c1,0,1.9-0.3,2.7-0.9c0.8,0.7,1.8,1.1,2.9,1.1
		c0.1,0,0.1,0,0.2,0c2.4-0.1,4.3-2.1,4.3-4.5l0-3.7c0-0.1,0-0.1,0-0.1c0.1,0,0.2,0,0.3,0l0.4,0c0.5,0,1.1-0.1,1.6-0.3l0,4.6
		c0.1,2.3,2,4.2,4.3,4.3c0.1,0,0.1,0,0.1,0c2.4,0,4.4-1.9,4.4-4.3l0-4.8c1-0.6,1.7-1.5,2.1-2.5c0,0.5,0,1-0.1,1.4c0,0,0,0,0,0v6.5
		c-0.1,2,1.5,3.6,3.5,3.7c2,0.1,3.6-1.5,3.7-3.5c0-0.1,0-0.1,0-0.2v-1.1c2.1,4.3,7.3,6,11.6,3.9c1.3-0.6,2.4-1.6,3.2-2.8
		C81.2,17.8,81.4,16.8,81.2,15.9z M19.7,16.8c-1.6,2.6-4.3,4-7.6,4c-5.1,0-9.2-4.1-9.2-9.2c0-5.1,4.1-9.2,9.2-9.2
		c2.2,0,5.1,0.3,6.9,2.3C19.9,5.6,19.9,7,19,7.9c0,0,0,0,0,0c-0.4,0.3-0.8,0.5-1.3,0.5c-0.7,0-1.4-0.3-1.9-0.6
		C14.2,7.1,13.3,7,12.6,7h-0.5c-2.5,0.2-4.4,2.4-4.3,4.9c0.2,2.3,2,4.1,4.3,4.3c1.1,0,2.7-0.3,3.6-1.8h-2.3c-0.1,0-0.2,0-0.3,0
		c-1.3,0-2.3-1.1-2.3-2.3c0-1.3,1-2.3,2.3-2.3h3.8c1.2,0,2.3,0.7,3,1.9C20.7,13.2,20.7,15.2,19.7,16.8z M47.9,18L47.9,18L47.9,18
		L47.9,18z M55.5,12.5l0,5.4l0,0l0,0c-0.1,1.8-1.5,3.3-3.4,3.3c0,0-0.1,0-0.1,0c-1.8-0.1-3.2-1.5-3.3-3.3l0,0v-5.4
		c-0.2-0.1-0.3-0.1-0.5-0.2l0,0c-0.1-0.1-0.2-0.1-0.3-0.2l-0.2,0.1c-0.5,0.3-1.1,0.4-1.7,0.4l-0.3,0c-0.1,0-0.1,0-0.2,0
		c-0.3,0-0.7,0-1,0.1c-0.4,0.1-0.4,0.8-0.4,1.2l0,0l0,3.7c0.1,1.9-1.4,3.4-3.3,3.5c0,0-0.1,0-0.1,0c-0.9,0-1.7-0.3-2.3-0.9
		c-0.2-0.2-0.4-0.4-0.5-0.6c-0.6,0.9-1.7,1.4-2.7,1.4c-0.7,0-1.4-0.3-2-0.8c-0.9,0.5-2,0.8-3.2,0.8c0,0-0.1,0-0.1,0
		c-2,0-3.9-0.8-5.4-2.2c-1.5-1.4-2.3-3.3-2.3-5.4c0-2.1,0.7-4,2.2-5.5c1.4-1.5,3.4-2.3,5.4-2.4c0,0,0.1,0,0.1,0c0,0,0.1,0,0.1,0
		c1.2,0,2.1,0.3,3,0.9c0.6-0.5,1.4-0.7,2.2-0.7c1.1,0,2.1,0.5,2.7,1.4c0.6-1,1.7-1.6,2.8-1.6l0,0c0.8,0,1.5,0.3,2.1,0.9
		c0.8-0.4,1.6-0.7,2.3-0.7c0,0,0,0,0,0c0,0,0.1,0,0.1,0c0.4,0,0.9,0,1.3,0.1c0.4,0.1,0.8,0.2,1.2,0.5l0.2,0.1c0,0,0.1,0,0.1-0.1
		c0.2-0.1,0.4-0.2,0.6-0.3c0-0.8,0.3-1.6,0.9-2.2c0.6-0.7,1.5-1,2.4-1.1c0,0,0.1,0,0.1,0c1.8,0,3.3,1.4,3.4,3.3
		c1.4,0.5,2.3,1.8,2.3,3.3C57.8,10.9,56.8,12.1,55.5,12.5z M59.9,4.4c0-1.3,1.1-2.3,2.4-2.3c1.2,0,2.2,1,2.3,2.3v0.1
		c0,1.1-0.8,2.1-1.9,2.3c-0.3,0.1-0.4,0-0.6,0c-0.2,0-0.2,0-0.4,0C60.6,6.5,59.9,5.5,59.9,4.4L59.9,4.4z M64.5,18.4
		c0,1.3-1,2.4-2.3,2.4c-1.3,0-2.4-1-2.4-2.3c0-0.1,0-0.1,0-0.2v-8.3c0-1.3,1.1-2.3,2.4-2.3c1.2,0,2.2,1,2.3,2.3V18.4z M79.6,17.7
		L79.6,17.7c-2.3,3.4-7,4.2-10.3,1.8c-3.4-2.3-4.2-7-1.8-10.3c2.3-3.4,7-4.2,10.3-1.8c0.4,0.2,0.7,0.5,1,0.8
		c0.1,0.1,0.1,0.2,0.2,0.2c0.9,1,0.8,2.4-0.1,3.3c-0.4,0.4-1,0.6-1.6,0.6c-0.7,0-1.3-0.3-1.7-0.8c0,0-0.9-0.9-2-0.9
		c-1.5,0-2.7,1.2-2.7,2.7c0,1.5,1.2,2.7,2.7,2.7c0.9,0,1.7-0.4,2.2-1.2c0.8-1,2.2-1.2,3.3-0.4C80,15.3,80.2,16.6,79.6,17.7z"/>
	<path class="st1" d="M58.6,12.1L58.6,12.1C58.6,12,58.6,12.1,58.6,12.1z"/>
	<path class="st1" d="M35.3,7c-0.9,0-1.6,0.4-1.9,1.2l0,0.1l-0.1-0.1c-1-0.9-1.9-1.3-3.2-1.3c0,0-0.1,0-0.1,0c0,0-0.1,0-0.1,0
		c-3.5,0.1-6.4,3-6.3,6.5c0,1.7,0.7,3.3,2,4.5c1.2,1.2,2.9,1.8,4.6,1.8c1.5,0,2.7-0.5,3.4-1.3l0.1-0.1l0.1,0.1
		c0.4,0.8,1,1.2,1.7,1.2c1.1,0,2.1-0.9,2.1-2.1V9.1C37.4,7.9,36.5,7,35.3,7z M32.4,13.3c0,1.3-1,2.3-2.3,2.3c0,0,0,0,0,0
		c-1.3,0-2.3-1-2.3-2.3c0-1.3,1-2.3,2.3-2.3c0,0,0,0,0,0C31.4,11,32.4,12,32.4,13.3L32.4,13.3z"/>
	<path class="st1" d="M46.5,7.1C46.1,7.1,45.7,7,45.3,7c-0.7,0-1.7,0.4-2.6,1.2l-0.1,0.1l0-0.2c-0.1-0.8-0.8-1.4-1.6-1.4
		c0,0,0,0,0,0c-1.1,0-2.1,0.9-2.1,2.1v8.8c0,0,0,0.1,0,0.1c0,1.1,1,2,2.1,2c0,0,0,0,0.1,0c1.1,0,2-1,2-2.1V14c0-0.8,0.1-2.2,1.5-2.5
		c0.5-0.1,1-0.1,1.4-0.1h0.2c0.3,0,0.6-0.1,0.9-0.2c-0.8-1.2-0.7-2.6,0.1-3.8C46.9,7.3,46.7,7.2,46.5,7.1z"/>
	<path class="st1" d="M54.5,7.3l-0.3,0v-1c0,0,0-0.1,0-0.1c0-0.5-0.2-1.1-0.6-1.4c-0.4-0.4-0.9-0.6-1.5-0.6c-0.5,0-1.1,0.2-1.4,0.6
		c-0.4,0.4-0.6,0.9-0.6,1.5v1h-0.2c0,0,0,0,0,0c-0.4,0-0.7,0.1-1,0.3c-0.2,0.1-0.4,0.3-0.5,0.4c-0.3,0.4-0.5,0.9-0.5,1.3
		c0,0.3,0.1,0.7,0.2,1l0,0c0,0,0,0.1,0,0.1c0,0,0,0,0,0.1c0,0.1,0.1,0.1,0.2,0.2l0,0c0.1,0.1,0.1,0.1,0.2,0.2
		c0.1,0.1,0.2,0.2,0.4,0.3c0.3,0.1,0.6,0.2,0.9,0.2H50h0.1v6.6c0,1.1,0.9,1.9,2,2c1.1,0,2.1-0.9,2.1-2v-6.6h0.3l0,0
		c1.1-0.1,1.9-0.9,1.9-2c0-0.5-0.2-1.1-0.6-1.5C55.5,7.5,55,7.3,54.5,7.3z"/>
</g>
</svg>
