<?xml version="1.0" encoding="utf-8"?>
<!-- Generator: Adobe Illustrator 25.4.1, SVG Export Plug-In . SVG Version: 6.00 Build 0)  -->
<svg version="1.1" id="Camada_1" xmlns="http://www.w3.org/2000/svg" xmlns:xlink="http://www.w3.org/1999/xlink" x="0px" y="0px"
	 viewBox="0 0 1600 900" style="enable-background:new 0 0 1600 900;" xml:space="preserve">
<style type="text/css">
	.st0{fill-rule:evenodd;clip-rule:evenodd;fill:#FFFFFF;}
	.st1{opacity:0.5;}
	.st2{fill:#DFDEE0;}
</style>
<g id="Page-1">
	<g id="Group">
		<rect id="Rectangle" class="st0" width="1600" height="900"/>
		<g id="Camada_1_00000076581333132716553370000011498528005433919895_" class="st1">
			<path class="st2" d="M850,360.4h-1.3v-3.7c0-3.7-2.9-6.8-6.5-6.8c-3.6,0-6.8,2.9-6.8,6.5c0,0.2,0,0.2,0,0.5v3.7h-1.3
				c-3.7,0-6.5,3-6.5,6.8c0,3.7,3,6.5,6.8,6.5h1.1v23.2c0,3.7,2.9,6.5,6.8,6.5h0.2c3.7,0,6.5-3,6.5-6.8l0,0v-23h1.4
				c3.7-0.2,6.5-3.3,6.3-7C856.5,363.3,853.6,360.6,850,360.4L850,360.4z"/>
			<path class="st2" d="M823,360c-1.3-0.5-2.7-0.5-3.9-0.5c-2.1,0-5.7,1.3-8.6,4.1l-0.8,0.8l-0.2-1.3c-0.5-3.3-3.5-4.6-5.4-4.6
				c-3.7,0-6.5,2.9-6.8,6.8v29.8c0.2,3.7,3,6.5,7,6.3c3.5-0.2,6.3-2.9,6.3-6.3v-12.3l0,0c-0.2-2.2,0.2-7.6,5.1-8.6
				c1.6-0.5,3.3-0.5,4.9-0.5h0.8c1.1,0,1.9-0.2,2.9-0.6c-2.2-3.9-2.2-8.6,0.5-12.5C824.3,360.3,823.5,360,823,360z"/>
			<path class="st2" d="M868.7,363.3h-0.6c-3.7,0.2-6.3,3-6.3,6.5v25.7c0,3.7,2.9,6.8,6.8,6.5c3.7,0,6.5-2.9,6.5-6.5v-25.7
				C875,366.3,872.3,363.3,868.7,363.3z"/>
			<path class="st2" d="M730.5,368.2c-3,0-8.2,0-10.5,0h-1.3c-0.5,0-0.6,0-0.8,0c-3.7,0.5-6.2,3.9-5.5,7.6c0.5,3.7,3.7,6.2,7.4,5.7
				h1.4c1.6,0,3.7,0,5.7,0h1.1l-0.6,0.8c-3,4.9-8.2,6-11.9,6c-8.2,0-14.8-6.5-14.8-14.8c0-8.2,6.5-14.8,14.8-14.8h1.4
				c2.2,0,5.4,0.5,10,2.7c1.9,0.8,3.9,1.9,6,1.9c1.3,0,2.7-0.5,3.7-1.4c2.7-2.5,2.9-6.8,0.5-9.5c-5.7-6.2-14.4-6.8-21.1-6.8
				c-15.4,0.5-27.7,13.3-27.3,29c0.5,14.9,12.3,26.6,27.3,27.3c9.8,0,18.1-4.6,23.2-12.3l0,0c2.9-4.7,3-10.6,0.5-15.8
				C737.3,370.4,734,368.2,730.5,368.2z"/>
			<path class="st2" d="M785.3,359.6c-2.9,0-5.4,1.4-6.2,3.7l-0.5,0.8l-0.6-0.6c-3.3-3-6.3-4.6-10.5-4.6
				c-11.7,0.2-20.9,9.5-21.1,21.1c-0.2,11.9,9.5,21.6,21.1,21.6c4.7,0,9-1.6,11.1-4.6l0.6-0.6l0.5,0.8c1.3,2.7,3,4.1,5.4,4.1
				c3.7,0,6.5-2.9,6.8-6.8v-28.5C792.1,362.5,789.1,359.6,785.3,359.6z M767.9,388.8L767.9,388.8c-4.6,0.2-8.2-3.5-8.4-7.8
				c-0.2-4.6,3.5-8.2,7.8-8.4c0.2,0,0.5,0,0.5,0l0,0c4.6-0.2,8.2,3.5,8.4,7.8c0.2,4.6-3.5,8.2-7.8,8.4
				C768,388.8,767.9,388.8,767.9,388.8z"/>
			<path class="st2" d="M920.2,383.6c-2.9-2.1-7.2-1.3-9.2,1.6c-1.6,2.5-4.6,3.9-7.4,3.9l0,0c-4.9,0-9-4.1-9-9c0.2-4.9,4.1-9,9-9
				c3.7-0.2,6.8,2.9,6.8,2.9c2.5,2.9,6.5,2.9,9.5,0.6c2.9-2.5,2.9-6.5,0.6-9.5l-0.2-0.2c-0.2-0.2-0.5-0.5-0.6-0.6
				c-4.1-4.3-9.8-6.5-15.8-6.5c-1.3,0-2.7,0.2-3.9,0.5c-12.1,2.1-20.3,13.8-18.2,25.8c2.1,12.1,13.8,20.3,25.8,18.2
				c5.7-1.1,11.1-4.3,14.4-9l0.2-0.2C924,389.9,923.2,385.6,920.2,383.6z"/>
			<path class="st2" d="M868.4,344.9L868.4,344.9c-3.7,0-6.8,2.9-6.8,6.8v0.2c0,3.7,2.9,6.8,6.8,6.8l0,0l0,0c3.7,0,6.8-2.9,6.8-6.8
				v-0.2C875.2,347.9,872.3,344.9,868.4,344.9L868.4,344.9z"/>
			<path class="st2" d="M643.7,449.9c-1.4-1.6-3.7-2.7-5.7-2.7h-87.8l-39.8,125.4l41.2-3.7c3.7-0.5,6.3-3.3,7.2-6.8l3.9-17.3
				c0.2-1.1,22.4-1.1,55.2-6c4.6-0.6,8.1-4.1,8.6-8.6l18.7-74.5C646,454,645.3,451.7,643.7,449.9z M607.3,479.3L607.3,479.3
				l-4.6,26.5c-0.5,2.2-2.2,3.9-4.6,3.9c0,0-25.5,2.1-25.7,1.6s7.2-35.7,7.2-35.7c0.2-1.1,1.1-1.6,2.1-1.6h20.9
				c2.7,0,4.6,2.1,4.6,4.6C607.3,478.7,607.3,478.8,607.3,479.3L607.3,479.3z"/>
			<path class="st2" d="M706.1,473.6c-0.2,0.5-0.5,1.1-0.6,1.3c-0.5,0.5-0.8,0.5-1.3,0.5h-12.5c-1.3,0-2.1-1.1-2.1-2.1
				c0-0.2,0-0.2,0-0.5l4.3-25.7l-35.5,0.2l-20.8,89.3l41.2-2.9l4.6-24.2c0.2-1.1,1.1-1.6,2.1-1.6h12.5c1.3,0,2.1,0.8,2.1,2.1
				c0,0.2,0,0.5,0,0.5l-3.5,21.4l33.6-3.5l14-80.9H711L706.1,473.6z"/>
			<path class="st2" d="M1121.1,572.4l-0.2-0.8l-14-47.4c-0.6-2.5-1.6-4.9-2.9-7.2c0.2-2.9,0-6-0.6-8.9l-0.2-0.5l-7-23.8
				c-0.6-2.7-1.6-5.1-2.9-7.6c0.2-2.9,0-5.7-0.6-8.6l-0.2-0.5l-7.4-25.8c-3-13-14.6-28.1-28.1-28.1h-17.6l5.4-47.9
				c-1.3-13.5-4.3-27.3-6.3-36.3c-0.5-2.1-0.8-3.7-1.3-4.9l0,0c-2.1-8.9-7.8-16.5-16.2-20.3c-21.4-9.8-212.6-87.5-431.4-0.6
				c-8.4,3.3-14.4,11.3-16.2,20.3c-1.4,6.8-4.3,25.8-4.9,43.9l5.4,46h-22.4c-13.5,0-25.5,15.8-28.1,29l-39.8,125.5l-0.2,0.5
				c-2.1,10.3,1.6,20.8,9.5,27.3c2.1,2.1,12.5,5.4,32.6,16c12.7,7,32.2,13.5,39.6,17.4c7.6,3.7,16.6,3.5,24.1-0.5l31.4-14.4l1.3-0.8
				c2.5-1.6,4.6-3.7,6.2-6.2v5.1c0,6.5,2.5,13.5,6.8,19.5c5.4,7.8,13.3,11.9,21.4,11.9h296.8c8.4,0,16-4.6,21.1-12.7
				c3.7-5.5,5.5-12.1,5.5-18.9v-3.7L1013,630l3.3,0.5c1.4,0.2,2.9,0.5,4.3,0.5c0.5,0,1.3,0,1.4,0c3.7,0.2,90.7-30.9,93.2-33.9
				C1120.9,589.8,1122.9,581.1,1121.1,572.4z M589.1,326.5c0.8-4.3,3.7-7.8,7.6-9.5c20.1-9.2,99.5-37.1,199.4-41.2l-9.5,18.1
				l28.7,2.9l-13.1,16.8l39.6-23.4l-23.2-6.3l9-7.4c94.5,6,168.3,32.5,187.6,41.2c3.9,1.9,6.8,5.4,7.6,9.5c2.1,9.7,9,35.7,7.2,54.4
				c-0.5,3.9-3.9,7-7.8,6.3c-0.2,0-0.5,0-0.5,0l-59.3-12.7c-4.6-0.6-6.3-5.4-5.5-9.7c0.5-2.7,3.7-17.9,6-20.9
				c-26.9-7.8-100.2-18.4-157.2-18.2c-48.7-1.4-139.3,8.1-151.7,16.6c0.5-0.2,3.3,18.4,5.5,24.2c1.4,3.7-0.5,7.8-4.1,9.2
				c-0.5,0.2-1.1,0.5-1.4,0.5l-60.9,13.8c-3.9,0.6-7.6-2.1-8.2-6c0-0.2,0-0.5,0-0.5C582.9,365.8,587,336.5,589.1,326.5z
				 M1028.3,395.8l-4.6,18.4c-1.6,3.7-5.7,6.2-9.8,5.4l-56.4-11.9c-5.4-0.8-8.6-5.1-7.4-10.3l3.3-19.8l0.5,2.9
				c1.6,2.5,4.3,4.1,7.2,4.6l59.3,12.5C1022.9,398,1026.1,397.4,1028.3,395.8z M820.2,385.3v10.3c0,5.7-2.9,11.1-7.8,14.1
				c-5.4,3-11.9,3.3-17,0.2l-1.3-0.6l-1.3,0.6c-2.5,1.4-5.4,2.1-8.2,2.1c-2.1,0-4.3-0.5-6.2-1.3l-0.8-0.5l-0.8,0.5
				c-3,1.3-6.3,1.6-9.7,1.6c-8.6,0-17-3.7-23-10.3l-1.4-1.6l-1.6,1.6c-6.8,6.5-16,10-25.8,10c-20.9,0-37.9-16.8-37.9-37.9
				s16.8-37.9,37.9-37.9l0,0c8.9,0,20.1,1.3,28.1,9.8c1.9,2.1,3.3,4.6,3.9,7l0.8,2.9l2.5-1.6c7.8-4.9,18.4-6.2,25.8-2.9l0.8,0.5
				l0.8-0.5c4.7-1.9,10-1.6,14.4,0.6l1.3,0.6l1.1-0.6c4.7-2.9,10.5-3.3,15.6-1.1l0.8,0.5l0.8-0.2c2.5-0.6,4.9-1.3,7.6-1.3
				c1.6,0,3.3,0.2,4.7,0.6l1.6,0.5l0.8-1.6c2.7-5.4,8.1-8.9,14.1-9.2c3.7-0.2,7.2,0.8,10.3,2.9l2.1,1.3l1.3-2.1
				c2.9-4.9,8.2-7.8,14-7.8c8.6,0,16,6.8,16.5,15.4l0.2,3.5l3-1.6c4.7-2.7,10-3.9,15.4-3.9c8.6,0,16.8,3.5,22.8,9.5
				c0.5,0.5,0.6,0.6,1.1,1.1c4.6,5.4,5.5,12.7,2.5,18.9l-0.6,1.3l0.8,1.3c1.3,1.9,2.1,3.7,2.7,6l0,0c0.8,3.9,0.6,9.8-5.4,16.8
				c-11.1,12.1-29.8,13.5-42.9,3.5l-1.6-1.3l-1.3,1.6c-3,3.7-7.8,6-12.5,6.2c-4.3,0-8.4-1.4-11.4-4.6l-1.6-1.4l-1.4,1.4
				c-6.3,6.5-16.8,6.8-23.2,0.5c-3-3-4.9-7.2-5.1-11.7l0.6-11.9L820.2,385.3z M658,405.3l-58.3,13c-4.1,0.6-8.2-1.6-9.8-5.4
				l-2.9-14.4c2.2,1.6,5.4,2.2,8.1,1.9l60.9-13.8c2.9-0.5,5.5-2.1,7.2-4.6h0.5l1.1,10.3C665.8,397.2,663.4,404.5,658,405.3z
				 M964.1,612.2c0,6.5-4.9,16-11.4,16H655.8c-6.5,0-12.5-9.5-12.5-16v-33l0.2-0.2c1.1,5.4,6,8.6,11.9,8.6h296.8
				c5.7,0,10.5-2.9,11.7-7.8c0.2,0,0.2,0.2,0.5,0.2v32.2H964.1z M1103.4,587.1c-0.5,0.6-75.5,27.6-76.6,28.1
				c-3.9,2.5-9.8-1.3-12.5-3.3l-36.3-24.2c-7-5.4-6-9-6.2-13.1l-1.3-10.5c0-9.2-8.9-9-9-9.5c-0.5,4.3-1.1,14.1-3.7,16.8
				c-2.2,2.7-5.5,4.1-9.2,4.3h-290c-3.7,0-7-1.6-9.5-4.6c-2.9-3.3-4.6-11.7-4.7-16.8l0,0c-6.8,1.6-8.9,7-8.9,10.6v7.2
				c0,3.3-0.6,6.2-4.7,8.1c-0.5,0.2-13.3,6.2-13.8,6.3l-1.1,9.5c-0.5,1.6-1.3,3-2.7,4.1l-31.2,14.1c-3,2.1-7.2,2.2-10.6,0.6
				c-16.2-7.8-65.3-27.3-68.8-30.8c-3.9-3-6-8.2-4.9-13.1l40.4-125.8c1.3-6.2,6.8-10.9,13.1-10.9h87.8c4.1,0,8.1,1.3,11.4,3.5
				c2.5-2.1,5.5-3.5,9-3.5c0,0,24.1-0.8,25.7,0l2.7-7.8c0.8-4.6,4.7-7.8,9.5-7.8h205.4c4.7,0,8.9,4.9,9.5,9.7l2.2,6.2h34.3
				c3.5,0,6.8,1.3,9.2,3.7c3.5-2.2,7.8-3.7,11.9-3.7h87.2c6.2,0,11.7,4.6,13.1,10.5l7.2,25.8c0.6,3,0.5,6.2-1.3,9
				c2.5,2.1,4.3,4.6,4.9,7.8l7,23.8c0.6,3,0.5,6.3-1.3,9.2c2.5,2.1,4.3,4.6,4.9,7.8l14,47.2C1107.1,579.8,1106,583.9,1103.4,587.1z"
				/>
			<path class="st2" d="M801.8,440.8c-30.4,0-55,21.7-55,48.8c0,27.1,24.6,48.8,55,48.8s55-21.7,55-48.8
				C856.8,462.7,832.1,440.8,801.8,440.8z M819.7,460c2.9-3,7.6-3.5,10.6-0.6c3,2.9,3.5,7.6,0.6,10.6c-2.9,3-7.6,3.5-10.6,0.6
				C817.3,467.9,816.9,463,819.7,460z M801.9,448.4c4.1,0,7.6,3.5,7.6,7.6s-3.5,7.6-7.6,7.6s-7.6-3.5-7.6-7.6
				C794.3,451.7,797.7,448.4,801.9,448.4L801.9,448.4z M771.2,460c2.9-3,7.6-3.5,10.6-0.6c3,2.9,3.5,7.6,0.6,10.6
				c-2.9,3-7.6,3.5-10.6,0.6C768.7,467.9,768.5,463,771.2,460L771.2,460z M759,487.7c0-4.1,3.5-7.6,7.6-7.6s7.6,3.5,7.6,7.6
				s-3.5,7.6-7.6,7.6l0,0C762.3,495.2,759,491.7,759,487.7L759,487.7z M782.4,514.7c-2.9,3-7.6,3.5-10.6,0.6
				c-3-2.9-3.5-7.6-0.6-10.6s7.6-3.5,10.6-0.6l0,0C785.1,506.9,785.1,511.7,782.4,514.7z M801.9,526.9c-4.1,0-7.6-3.5-7.6-7.6
				c0-4.1,3.5-7.6,7.6-7.6s7.6,3.5,7.6,7.6l0,0C809.5,523.4,806.1,526.9,801.9,526.9z M801.8,503.4c-10.3,0-18.4-7.4-18.4-16.5
				c0-9,8.2-16.5,18.4-16.5c10.3,0,18.4,7.4,18.4,16.5C820.2,496.1,812,503.4,801.8,503.4L801.8,503.4z M831.1,514.7
				c-2.9,3-7.6,3.5-10.6,0.6c-3-2.9-3.5-7.6-0.6-10.6s7.6-3.5,10.6-0.6l0,0C833.5,506.9,834,511.7,831.1,514.7z M845.4,487.7
				c0,4.1-3.5,7.6-7.6,7.6s-7.6-3.5-7.6-7.6s3.5-7.6,7.6-7.6l0,0C841.9,480.3,845.4,483.3,845.4,487.7L845.4,487.7z"/>
			<path class="st2" d="M918.8,449.9l4.9,24.6c0.2,0.6,0,1.3-0.5,1.9c-0.8,1.1-7.2,1.1-8.1,0l-17.9-26.3h-35.5l12.5,82.1l28.7,2.5
				l-4.1-24.1c0-0.2,0-0.5,0-0.5v-0.5c0-0.2,0.2-0.5,0.2-0.5l0.5-0.6c0.2-0.2,0.5-0.2,0.5-0.5l0.8-0.2h0.2c0.2,0,6.5,0,6.5,0
				l0.6,0.2l0.5,0.2c0.2,0.2,0.5,0.5,0.5,0.5l17.3,27.9l45.8,4.6L949,449.8L918.8,449.9L918.8,449.9z"/>
			<path class="st2" d="M1030.1,530.7c-1.1,0-1.9-0.6-2.1-1.6l-2.5-12.7c-0.2-0.6,0-1.3,0.5-1.6c0.5-0.5,1.1-0.8,1.6-0.8h46.6
				l-7-24.1l-47.2,0.2c-1.1,0-1.9-0.6-2.1-1.6l-2.5-12.7c-0.2-1.3,0.5-2.1,1.6-2.5c0.2,0,0.5,0,0.5,0h46.1l-7.4-25.7h-87.2
				c-4.3,0-7.8,3.5-7.8,7.8c0,0.5,0,1.1,0.2,1.4l25.2,97c0.6,3.3,3.3,5.7,6.5,6.2l98.7,16.5l-14-46L1030.1,530.7z"/>
		</g>
	</g>
</g>
</svg>
