<?xml version="1.0" encoding="UTF-8"?>
<svg width="177px" height="110px" viewBox="0 0 177 110" version="1.1" xmlns="http://www.w3.org/2000/svg" xmlns:xlink="http://www.w3.org/1999/xlink">
    <!-- Generator: Sketch 63.1 (92452) - https://sketch.com -->
    <title>Group 69</title>
    <desc>Created with Sketch.</desc>
    <g id="Page-1" stroke="none" stroke-width="1" fill="none" fill-rule="evenodd">
        <g id="inicial-copy-65" transform="translate(-49.000000, -467.000000)">
            <g id="Group-69" transform="translate(49.000000, 467.000000)">
                <g id="Group-67">
                    <path d="M156.098179,35.3748792 C157.538361,27.3835876 152.933285,20.3130249 147.736224,16.8396547 C144.944861,14.9156488 141.692315,13.8774477 138.361558,13.8441109 C134.638391,13.840936 131.032542,15.2252042 128.180497,17.7524462 L127.356573,18.5207786 L111.728982,44.1519652 L86.4799515,5.45912843 L82.8633152,7.09739082 L82.1809818,6.2703223 C78.9675424,2.40326108 75.0623303,0.174462245 71.1733,0.0188908163 C69.0319061,-0.108106268 66.8972545,0.403056997 65.0120727,1.48888207 C62.4917545,2.95411093 60.5688152,5.34641851 59.6086939,8.21179023 L59.0814364,9.71829315 L57.6884515,9.06425816 C56.2064667,8.35466195 54.6098606,7.95144621 52.9849364,7.87207303 C50.8368,7.73713863 48.6967545,8.24988936 46.8156182,9.35158907 C42.695997,11.7200847 40.3482848,16.4904127 40.5465121,22.1068587 C40.5748303,22.9815512 40.6597848,23.8546561 40.8013758,24.7182363 L41.0076939,25.9199462 L38.685603,26.8771867 L31.4267091,42.2358966 L63.076997,107.274279 L94.1568758,90.7313208 L91.7525273,109.938042 L123.806012,86.8134608 L155.78533,37.1258515 L156.098179,35.3748792 Z" id="Fill-1" fill="#FFFFFF"></path>
                    <path d="M84.8246864,10.7707815 L81.1837773,12.4249185 C78.5056864,7.51489373 74.5923833,4.39711531 70.8193227,4.2320191 C69.4721864,4.1621707 68.1317924,4.48760073 66.9478227,5.17338499 C64.2548985,6.72274942 62.7796561,9.86592726 62.9198985,13.7917246 C63.0250803,15.9570249 63.5010955,18.0826386 64.3209742,20.0685555 L63.1423985,20.6003558 C60.4723985,15.5157101 56.4444742,12.2598223 52.6147773,12.0947261 C51.2689894,12.0185278 49.9299439,12.3439579 48.7513682,13.0345045 C46.0490045,14.5933937 44.5737621,17.7365716 44.715353,21.6528442 C44.8299742,23.9387917 45.3504894,26.1802902 46.2472318,28.2630424 L41.6664288,30.1521241 L36.1147167,41.8961794 L64.83205,100.892675 L113.995111,74.7027013 L114.438762,74.4677567 L119.620989,64.020659 L84.8246864,10.7707815 Z" id="Fill-3" fill="#211256"></path>
                    <path d="M40.1839045,41.4007321 L66.2164045,94.9617525 L111.680571,71.0640761 L114.784783,64.098286 C114.784783,64.098286 59.592647,25.1371679 58.96695,25.1371679 C58.3399045,25.1371679 43.8652682,33.4872262 43.8652682,33.4872262 L40.1839045,41.4007321 Z" id="Fill-5" fill="#4CE0AA"></path>
                    <polygon id="Fill-7" fill="#88FFD7" points="83.2998197 15.4463379 45.1188197 32.7544531 70.4420167 82.8786149 114.250244 62.8003758"></polygon>
                    <path d="M105.946139,49.158349 L95.2958061,67.4427542 L93.3836545,80.3980443 C93.3836545,80.3980443 113.38573,71.0812207 114.250109,69.7747382 C115.114488,68.4682557 110.567397,53.7477061 110.567397,53.7477061 L105.946139,49.158349 Z" id="Fill-9" fill="#00BEEA"></path>
                    <path d="M84.0661636,12.6077943 L82.4183152,13.339615 L44.3033909,30.6651923 L42.1525576,31.6398949 L43.2556182,33.8163074 L68.5720727,83.9404692 L69.5011788,85.7866894 L71.3148909,84.9580334 L115.123118,64.8734445 L117.520724,63.7749197 L116.037391,61.5127841 L85.0626939,14.1587462 L84.0661636,12.6347812 L84.0661636,12.6077943 Z M83.3002242,15.4191923 L114.250648,62.7748176 L70.4410727,82.8514692 L45.1259667,32.7542943 L83.3002242,15.4191923 Z" id="Fill-11" fill="#211256"></path>
                    <path d="M56.2787455,30.0297306 C58.2637152,28.5835513 61.1494727,29.3693458 62.724503,31.7838778 C64.2995333,34.1999974 63.9664576,37.3304755 61.9814879,38.7766548 C59.9951697,40.2228341 57.1094121,39.4370397 55.5343818,37.0209201 C53.9593515,34.606388 54.2924273,31.4759099 56.2787455,30.0297306" id="Fill-13" fill="#211256"></path>
                    <path d="M61.9479106,29.0451857 C61.7941833,26.6497032 61.1293803,24.3224816 60.0047439,22.238142 C57.9442591,18.2488461 54.9128652,15.594607 52.2846682,15.4818971 C51.5753652,15.4453854 50.8687591,15.6136566 50.2417136,15.9692484 C48.7111833,16.8407659 47.9196227,18.7203227 48.0099712,21.193591 C48.16235,23.5779612 48.8217591,25.895658 49.9383045,27.9752353 L50.0933803,28.2800283 L53.1423045,27.1640414 L52.9521682,26.8259117 L52.837547,26.6258913 C52.7916985,26.5560429 52.7498955,26.484607 52.7134864,26.4084087 C51.8180924,24.7764962 51.2840924,22.9509131 51.1478955,21.0713563 C51.1478955,19.7124875 51.4283803,19.0330531 51.7506682,18.8504948 C51.8733803,18.7806464 52.0136227,18.752072 52.1525167,18.7631843 C53.4052591,18.8155706 55.6545318,20.714177 57.2443955,23.785919 C58.1357439,25.4178315 58.667047,27.2370647 58.8018955,29.1150341 C58.8504409,30.4818402 58.5295015,31.1612746 58.2085621,31.3438329 L57.7217591,31.5533781 L57.8458197,32.0931157 C58.0764106,32.7725501 58.3150924,33.4503971 58.5699561,34.1218942 L58.7695318,34.652107 L59.2792591,34.4441493 L59.3871379,34.4441493 C59.4990621,34.4044627 59.6096379,34.3584262 59.7161682,34.3044525 C61.2399561,33.4249977 62.0315167,31.5629029 61.9479106,29.0451857" id="Fill-15" fill="#E639FF"></path>
                    <path d="M59.7157636,34.3052462 L59.7157636,34.3052462 C59.5431576,34.3052462 58.8918394,34.14015 58.2081576,33.0606748 C57.9735212,32.527287 57.9735212,31.9113512 58.2081576,31.3795509 C58.529097,31.1969926 58.8500364,30.5080334 58.8014909,29.150752 C58.6679909,27.2727827 58.1353394,25.451962 57.2439909,23.8216369 C55.6541273,20.7483074 53.4048545,18.8512885 52.1534606,18.7973147 L52.1035667,18.7973147 C51.9808545,18.7925523 51.8581424,18.8227141 51.7502636,18.8846252 C51.4279758,19.0671835 51.1070364,19.7561427 51.1474909,21.1070742 C51.2836879,22.986631 51.8190364,24.8122141 52.7144303,26.4425392 C52.7494909,26.5187375 52.7912939,26.5917608 52.8371424,26.6616092 L52.9517636,26.8616296 L53.1419,27.1997593 L50.0700515,28.3220961 L49.9122788,28.0188905 C48.7970818,25.9377258 48.1376727,23.6216165 47.9852939,21.2372462 C47.893597,18.7211165 48.6851576,16.8828337 50.2170364,16.0129036 C50.7901424,15.6874736 51.4293242,15.5207899 52.0792939,15.5254531 L52.2613394,15.5254531 C54.8881879,15.6382622 57.9195818,18.2940888 59.9787182,22.2817972 C61.104703,24.3661369 61.7681576,26.6933585 61.9232333,29.0904284 C62.0311121,31.5621092 61.2395515,33.4242039 59.7157636,34.3131835 L59.7157636,34.3052462 Z M61.7250061,21.2435961 C59.3031273,16.5510538 55.720203,13.5570975 52.3678697,13.4092861 L52.1035667,13.4092861 C51.1232182,13.4015261 50.1550061,13.6602827 49.2946727,14.1587462 C47.1195667,15.4207797 45.9504303,18.0321573 46.0488697,21.3134445 C46.2106879,24.0200698 46.9510061,26.6520844 48.2158848,29.0110552 L48.3723091,29.3158483 L48.8173091,30.1857783 C50.8926273,29.2285378 53.0353697,28.4459182 55.1605818,27.5744007 C55.3062182,27.5188395 55.4680364,27.5188395 55.6136727,27.5744007 L54.7897485,26.1821952 L54.5996121,25.842478 L54.4607182,25.5980086 L54.3946424,25.4837112 C53.7581576,24.2994634 53.3266424,23.0072681 53.1162788,21.6626864 C54.079097,22.5659532 54.8814455,23.6454284 55.4815212,24.8487258 C56.2204909,26.2028322 56.6695364,27.7093351 56.7989909,29.263462 C56.8138242,29.4603074 56.8138242,29.6587404 56.7989909,29.8555859 L56.6924606,29.9159095 L56.4214152,30.5080334 C55.8604455,31.677994 55.8833697,33.0638497 56.4861424,34.2084109 C57.1239758,35.4593322 58.3119909,36.2864007 59.6496879,36.4118103 L60.1513242,36.4118103 L60.6300364,36.1594036 C62.8132333,34.8973701 63.9999,32.2859926 63.9243848,28.9935931 C63.7612182,26.2679182 63.0074152,23.6168541 61.7250061,21.2435961 L61.7250061,21.2435961 Z" id="Fill-17" fill="#211256"></path>
                    <path d="M55.2924636,17.2136611 C54.7193576,17.1358754 54.1395091,17.2644599 53.6446152,17.5787777 C53.4059333,17.7629235 53.2077061,17.9534191 52.993297,18.1185153 C53.8657667,18.3550474 56.2229182,19.3726115 58.1836152,24.3794716 C58.2955394,23.596852 58.594903,22.860269 59.0560848,22.2379832 C59.5995242,21.723645 57.0630242,18.5979293 55.2924636,17.2136611" id="Fill-19" fill="#F8BBFF"></path>
                    <path d="M74.4872015,22.1636899 C76.4735197,20.7175106 79.3579288,21.5033051 80.9329591,23.9178372 C82.5079894,26.3339567 82.1749136,29.4644348 80.1899439,30.9090267 C78.2049742,32.355206 75.3178682,31.5694115 73.7428379,29.153292 C72.1678076,26.7387599 72.5008833,23.6082818 74.4872015,22.1636899" id="Fill-21" fill="#211256"></path>
                    <path d="M80.1538045,21.1839074 C80.0000773,18.7884249 79.3352742,16.4612034 78.2106379,14.3752762 C76.150153,10.3875678 73.1187591,7.73174125 70.4905621,7.61903134 C69.7785621,7.57934475 69.0665621,7.74761589 68.4395167,8.10797012 C66.9157288,8.97790015 66.1255167,10.857457 66.2158652,13.3307252 C66.365547,15.7166829 67.0249561,18.0359672 68.14285,20.1123695 L68.2992742,20.41875 L71.3481985,19.3027631 L71.1580621,18.9646334 L71.0420924,18.764613 C71.0016379,18.6947646 70.9517439,18.6249162 70.9112894,18.545543 C70.0212894,16.912043 69.4899864,15.0880474 69.3537894,13.210078 C69.3537894,11.8512092 69.6342742,11.1638375 69.9471227,10.9796917 C70.0752288,10.9161931 70.2181682,10.8907937 70.3584106,10.9003185 C71.611153,10.9542923 73.8604258,12.8513112 75.4502894,15.9246407 C76.3375924,17.5565532 76.8688955,19.3773739 77.0064409,21.2537558 C77.0563348,22.620562 76.7353955,23.2999964 76.4144561,23.4825547 L75.927653,23.6920999 L76.0422742,24.2318375 C76.2823045,24.9112719 76.5209864,25.5891188 76.77585,26.2590284 L76.9740773,26.7908287 L77.4770621,26.5812835 L77.5835924,26.5812835 C77.7009106,26.5463593 77.8141833,26.497148 77.9220621,26.4352369 C79.44585,25.5637194 80.2360621,23.6920999 80.1538045,21.1839074" id="Fill-23" fill="#E639FF"></path>
                    <path d="M77.9216576,26.4423805 L77.8798545,26.4423805 C77.7072485,26.4423805 77.0559303,26.2772843 76.373597,25.1898717 C76.1389606,24.6596589 76.1389606,24.046898 76.373597,23.5166851 C76.6945364,23.3341268 77.0154758,22.6467551 76.9655818,21.2878863 C76.8280364,19.4115044 76.2967333,17.5922711 75.4094303,15.9587711 C73.8182182,12.8870292 71.5702939,10.9900102 70.3175515,10.9360364 L70.2676576,10.9360364 C70.1422485,10.9328615 70.0195364,10.9598484 69.9062636,11.0138222 C69.5920667,11.1963805 69.2711273,11.8853397 69.3129303,13.2442085 C69.4504758,15.1221778 69.9817788,16.9461735 70.8704303,18.5812609 C70.8704303,18.6590466 70.9607788,18.728895 71.0012333,18.7987434 L71.117203,18.9987638 L71.3059909,19.3368936 L68.2584152,20.4528805 L68.1019909,20.1480875 C66.984097,18.0700977 66.3246879,15.7524009 66.1736576,13.3664431 C66.0833091,10.8503134 66.8748697,9.01361808 68.3986576,8.14210058 C68.9731121,7.81825802 69.6163394,7.64998688 70.2676576,7.65465092 L70.449703,7.65465092 C73.0765515,7.76745918 76.1079455,10.4232857 78.1684303,14.4109942 C79.2944152,16.4953338 79.9592182,18.8225554 80.1129455,21.2196254 C80.2356576,23.6928936 79.4454455,25.5629257 77.9216576,26.4423805 M79.9309,13.3823178 C77.5090212,8.68977551 73.926097,5.69581924 70.5737636,5.54648287 L70.3094606,5.54648287 C69.3277636,5.54024781 68.3609,5.79741691 67.4992182,6.29588047 C65.3254606,7.54997668 64.1387939,10.1613542 64.2547636,13.461691 C64.4165818,16.1667289 65.1569,18.7987434 66.4217788,21.1577143 L66.578203,21.4625073 L67.023203,22.3324373 C69.0985212,21.3767843 71.2399152,20.5386035 73.3651273,19.7226472 C73.5107636,19.6639111 73.6725818,19.6639111 73.8182182,19.7226472 L72.9956424,18.3288542 L72.8055061,17.989137 L72.6666121,17.7446676 L72.6005364,17.6319577 C71.9667485,16.4461224 71.5352333,15.1523397 71.3221727,13.8093455 C72.2849909,14.7126122 73.0859909,15.7920875 73.6860667,16.9969723 C74.4250364,18.3479038 74.8754303,19.8559942 75.0048848,21.410121 C75.0197182,21.6069665 75.0197182,21.8053994 75.0048848,22.0022449 L74.8983545,22.0625685 L74.6259606,22.6546924 C74.0649909,23.8246531 74.0892636,25.2105087 74.6906879,26.35507 C75.3285212,27.6044038 76.5178848,28.4330598 77.8555818,28.5584694 L78.3572182,28.5584694 L78.8359303,28.3060627 C81.0191273,27.0440292 82.2044455,24.4310641 82.1302788,21.1402522 C81.9684606,18.4098149 81.2160061,15.7571633 79.9309,13.3823178" id="Fill-25" fill="#211256"></path>
                    <path d="M73.4970091,9.3260309 C72.9252515,9.24665773 72.345403,9.37524227 71.8491606,9.69114752 C71.6037364,9.87529329 71.4136,10.0657889 71.1991909,10.2308851 C72.0716606,10.4674172 74.4274636,11.4849813 76.3895091,16.4918414 C76.4987364,15.7171592 76.795403,14.9885134 77.2538879,14.3757525 C77.8054182,13.8614143 75.2675697,10.737286 73.4970091,9.3260309" id="Fill-27" fill="#F8BBFF"></path>
                    <path d="M88.85315,37.9872092 C85.5588015,39.5984847 82.31165,41.4081931 78.926953,42.8464351 L78.926953,42.5845036 C78.9161652,41.9812675 78.8635742,41.3780313 78.7691803,40.7827325 C77.8387258,40.5223885 76.88265,40.3382427 75.9602864,40.0604366 C74.2584985,42.3241596 72.4313015,44.4815226 70.4908318,46.5198258 C70.3667712,45.0228477 70.3667712,43.5163448 70.4908318,42.0193666 C69.4943015,41.7447354 68.51665,41.3954934 67.5659682,40.9748156 C65.5311045,44.2132413 64.1475591,47.8707573 62.1046045,51.1091829 C62.8381803,51.6838448 63.5704076,52.2569191 64.2783621,52.849043 C65.5607712,50.7615284 66.7177712,48.5930532 67.7480136,46.3547296 C67.7979076,47.4865911 67.846453,48.6089278 67.8383621,49.7249147 C67.8302712,49.7646013 67.8302712,49.8058754 67.8383621,49.845562 L70.3101348,50.5773827 C72.3962409,48.6105153 74.3501955,46.4928389 76.1585136,44.2386407 L76.1585136,44.5529585 L77.8063621,46.2928185 C81.9246348,44.7529789 85.7556803,42.5225926 89.7094379,40.6081115 C89.4869379,39.7985051 89.1740894,38.8761888 88.85315,37.9872092" id="Fill-29" fill="#211256"></path>
                    <path d="M95.0476848,52.1362719 C92.1147303,53.6078506 89.2316697,55.1746771 86.2245485,56.4890969 L86.2245485,56.2271655 C86.2137606,55.6239293 86.1625182,55.0206931 86.0681242,54.4253943 C85.1363212,54.1634628 84.1815939,53.9809045 83.2592303,53.7015109 C81.5587909,55.9684089 79.7329424,58.1257719 77.7897758,60.1640751 C77.6657152,58.6655095 77.6657152,57.1590066 77.7897758,55.6620284 C76.791897,55.3889847 75.8142455,55.0381552 74.8649121,54.6158899 C72.8300485,57.8559031 71.446503,61.5118316 69.4022,64.7502573 C70.1357758,65.3265066 70.8693515,65.9011684 71.5786545,66.4932923 C72.8570182,64.4041902 74.0153667,62.2341276 75.0456091,59.9973914 C75.095503,61.1292529 75.145397,62.2611144 75.1292152,63.3659891 C75.1238212,63.4072631 75.1238212,63.4485372 75.1292152,63.4882238 L77.6009879,64.2200445 C79.6857455,62.2547646 81.642397,60.1355007 83.4480182,57.8813025 C83.4480182,58.143234 83.4075636,58.4908885 83.4480182,58.2035576 L85.0958667,59.9450051 C88.8608364,58.53375 92.3952152,56.5494206 96.0037606,54.72225 C95.7556394,53.8856567 95.3767152,53.0062019 95.0476848,52.1362719" id="Fill-31" fill="#211256"></path>
                    <polygon id="Fill-33" fill="#211256" points="67.1548152 96.0861529 65.2183909 94.1526223 69.1397848 82.7117724 71.0748606 83.0435523"></polygon>
                    <path d="M104.587136,71.0199446 L133.419091,23.7960787 C133.419091,23.7960787 142.645424,22.3848236 148.098697,33.4605569 L117.923652,80.3542303 L101.968379,91.8284169 L104.587136,71.0199446 Z" id="Fill-35" fill="#FFD15F"></path>
                    <path d="M116.877632,74.2074127 C115.534541,72.2722946 113.712738,70.7657917 111.614495,69.8530001 C109.388147,69.164041 107.057965,68.9402086 104.752056,69.1926153 L104.587541,71.0547101 L98.9778439,98.2463733 L119.39795,80.3889958 L119.438405,80.3270847 C118.797874,78.6983471 117.866071,75.5821561 116.877632,74.2074127" id="Fill-37" fill="#E1FEFF"></path>
                    <path d="M136.771694,44.42993 C137.525497,45.5586166 138.155239,46.7746137 138.650133,48.0525219 L149.572861,31.0920612 C146.451118,18.1113717 134.918876,21.410121 134.918876,21.410121 L125.460603,36.9339271 C129.802724,38.3007332 134.094952,40.4596837 136.771694,44.42993" id="Fill-39" fill="#EA267F"></path>
                    <path d="M138.213629,18.0321554 L138.213629,18.0321554 C135.546326,18.0305698 132.96128,19.0052724 130.898098,20.791169 L130.519174,21.1499357 L130.248129,21.6023628 L101.414826,68.834166 L100.953644,69.5834488 L100.847114,70.4533789 L98.2512803,91.2634386 L97.1482197,100.108786 L104.12528,95.0749386 L120.015826,83.600752 L120.601068,83.1832491 L121.004265,82.556201 L151.179311,35.7069765 L151.624311,35.0180173 L151.764553,34.2084109 C152.827159,28.3490829 149.178159,22.8913832 145.330932,20.3657287 C143.220553,18.8798628 140.74878,18.0702564 138.213629,18.0321554 M138.213629,22.0452652 C140.025992,22.0849517 141.788462,22.6707258 143.297417,23.7359138 C146.20475,25.6757943 148.716977,29.6809649 148.031947,33.4607156 L117.856902,80.3543891 L100.318508,95.6511879 L104.628265,71.0201034 L133.46022,23.7962375 C134.823538,22.6564386 136.515886,22.0405028 138.254083,22.0547899" id="Fill-41" fill="#211256"></path>
                    <path d="M119.686526,81.0765262 L118.451314,81.0765262 C118.451314,76.7364009 116.152147,72.8947391 113.881298,71.3421997 C109.119798,68.1228236 103.779798,70.1976385 103.727208,70.219863 L103.287602,69.000691 C103.52898,68.9006808 109.249253,66.6607697 114.548798,70.2436749 C117.104177,71.9882974 119.686526,76.2696866 119.686526,81.0765262" id="Fill-43" fill="#211256"></path>
                    <path d="M141.195129,33.9037767 C138.626265,30.4224691 134.079174,28.9588277 130.000008,29.5509516 L125.461008,36.9786936 C129.803129,38.3454997 134.079174,40.5028627 136.772098,44.473109 C137.524553,45.6017956 138.155644,46.8177927 138.649189,48.0957009 L145.076068,38.8582504 C144.803674,36.4722927 142.604295,35.8023831 141.195129,33.9037767" id="Fill-45" fill="#00BEEA"></path>
                    <path d="M135.981617,25.189713 C135.759117,25.3706838 135.891268,25.2325745 135.799571,25.5897538 C135.672814,26.018369 135.46245,26.4168223 135.181965,26.754952 C134.313541,27.737592 133.376344,28.6535585 132.381162,29.4901517 C131.555889,30.480729 130.912662,31.6268777 130.486541,32.8682742 C129.759708,34.8002173 128.210298,36.2527465 126.310283,36.7861343 L125.897647,37.4306445 L132.595571,41.9136415 L139.037283,31.96342 C139.037283,31.96342 140.77548,27.8693515 144.803405,29.4028413 C144.803405,29.4028413 142.026874,23.7435337 137.389435,24.4578923 C136.882405,24.6102888 136.405041,24.8579331 135.981617,25.189713" id="Fill-47" fill="#E1FEFF"></path>
                    <path d="M138.354545,49.593949 C136.310242,44.5331152 133.102197,41.2359534 128.818061,39.7977114 C125.628894,38.7261735 123.057333,39.1278017 123.031712,39.1325641 L122.717515,36.981551 C122.834833,36.9625015 134.777015,35.1829548 140.247818,48.7398936 L138.354545,49.593949 Z" id="Fill-49" fill="#211256"></path>
                    <path d="M142.206492,43.8098668 C137.222492,33.9834673 129.916402,33.4088055 127.164144,33.194498 C126.359098,33.129412 126.058386,33.1056 125.848023,32.8293813 L125.722614,32.3547297 L126.782523,32.5103012 C126.821629,32.2166204 126.622053,32.0197749 126.512826,31.9848507 C126.601826,32.0134251 126.942992,32.040412 127.243705,32.0642239 C129.875947,32.2705942 137.888644,32.9008172 143.150432,43.2748915 L142.206492,43.8098668 Z" id="Fill-51" fill="#211256"></path>
                    <path d="M145.253664,40.1358411 C140.277755,30.3221414 132.973012,29.7411297 130.222103,29.5220598 C129.411664,29.4569738 129.106906,29.4347493 128.895194,29.1569431 L128.768436,28.6822915 L129.829694,28.834688 C129.867452,28.5425948 129.670573,28.3489242 129.562694,28.314 C129.651694,28.3425743 129.998255,28.3695612 130.301664,28.3949606 C132.933906,28.6029184 140.943906,29.2410787 146.198952,39.6008659 L145.253664,40.1358411 Z" id="Fill-53" fill="#211256"></path>
                    <polygon id="Fill-55" fill="#211256" points="114.76132 70.18605 113.739168 69.4526418 131.722562 41.4593095 132.743365 42.1943051"></polygon>
                    <path d="M100.229642,83.556938 C100.229642,83.556938 107.297052,84.1062004 108.351567,89.4940517 L98.6721424,96.8789322 L100.229642,83.556938 Z" id="Fill-57" fill="#211256"></path>
                    <path d="M155.718985,75.8785356 C157.761939,75.5896172 159.838606,75.338798 161.847848,75.0070181 C163.857091,74.6768257 165.916227,74.3212338 167.943,73.9354802 L173.207485,72.9274408 L168.553864,69.8715735 C166.040288,68.2348985 163.502439,66.6569598 160.941667,65.1091828 L161.344864,64.969486 C162.992712,64.3773621 164.582576,63.8376245 166.18053,63.1835895 C169.39397,61.9564802 172.564258,60.572212 175.671167,59.0561843 C172.227136,59.3451026 168.857273,59.8403913 165.52247,60.4499773 C163.874621,60.7198461 162.226773,61.1024248 160.537121,61.4342047 C158.848818,61.7643971 157.242773,62.1485633 155.594924,62.5406668 L150.997939,63.6360166 L155.017773,66.3807411 C157.283227,67.9285181 159.582394,69.4191464 161.896394,70.8812003 C161.617258,70.9510487 161.336773,71.0113723 161.073818,71.089158 C159.0875,71.5955589 157.118712,72.1956201 155.141833,72.7528198 C153.164955,73.3100195 151.204258,73.9545297 149.243561,74.6419015 C147.282864,75.3292732 145.331606,76.0356945 143.385742,76.8611755 C145.463758,76.8611755 147.505364,76.7135414 149.580682,76.5309831 C151.657348,76.3484248 153.667939,76.1214175 155.718985,75.8785356" id="Fill-59" fill="#5635DC"></path>
                    <path d="M167.869777,85.4637993 C164.810065,84.277964 161.692368,83.2762745 158.527474,82.4603182 L154.952641,81.5903882 L156.205383,85.366964 C156.658474,86.7448824 157.135838,88.1116885 157.621292,89.4689698 C155.365277,88.6514261 153.090383,87.8767439 150.792565,87.1703226 C148.897944,86.5908984 146.976353,86.0590981 145.026444,85.5765092 C143.084626,85.082808 141.117186,84.7018168 139.134914,84.4382978 C140.88255,85.4907862 142.620747,86.4829509 144.383217,87.4401914 C146.147035,88.3990194 147.909505,89.3308605 149.689505,90.2182526 C153.246808,92.0168488 156.841868,93.7059101 160.471989,95.2854363 L164.91255,97.2173794 L163.264702,92.4121273 C162.679459,90.7405281 162.086126,89.0768663 161.46852,87.4227293 C163.380671,87.7703838 165.302262,88.1085136 167.234641,88.4323561 C168.882489,88.6514261 170.43055,88.9292322 172.055474,89.0863911 C173.677702,89.24355 175.299929,89.4261083 176.946429,89.4943692 C175.488717,88.6847628 173.998641,87.9529421 172.499126,87.3004946 C170.999611,86.6480471 169.425929,86.0829101 167.869777,85.4637993" id="Fill-61" fill="#5635DC"></path>
                    <path d="M4.76109545,70.5238622 L10.0417621,72.0113156 C12.0280803,72.5780401 14.0292318,73.1098404 16.0303833,73.605129 C18.0328833,74.1020051 20.0515652,74.563957 22.0769894,74.9814599 C24.1037621,75.3989628 26.1386258,75.7656669 28.1721409,76.1133214 C30.208353,76.4609759 32.2917621,76.7133827 34.3428076,76.8610168 C32.4738076,75.8355153 30.5791864,74.9639978 28.6751258,74.1115299 C26.7724136,73.2574745 24.8616106,72.4653302 22.9090045,71.7430343 C20.957747,71.0191509 19.0617773,70.2714555 17.1428833,69.619008 C16.8785803,69.5221727 16.6156258,69.4427996 16.3189591,69.3570765 C18.7003833,68.0585313 21.0561864,66.7441115 23.3796258,65.3344439 L27.4978985,62.8627631 L23.1234136,61.7642383 C21.8962924,61.451508 20.6516409,61.1387777 19.44205,60.7800109 L15.7350652,59.7449847 C14.4985045,59.3782806 13.2632924,59.0830124 11.9849288,58.7258331 C10.7092621,58.3702413 9.4565197,58.0908477 8.16332273,57.8559031 C9.24211061,58.6401101 10.3627015,59.3528812 11.4590197,60.0672398 C12.5539894,60.7800109 13.7163833,61.4419832 14.8774288,62.0515692 C15.9076712,62.6008316 16.9446561,63.1659687 17.9991712,63.6628448 C15.2064591,65.002664 12.4299288,66.3885197 9.69520152,67.8585109 L4.76109545,70.5238622 Z" id="Fill-63" fill="#5635DC"></path>
                    <path d="M26.1801591,86.6218539 C23.832447,87.1361921 21.5170985,87.7267286 19.20175,88.3633015 C19.7869924,87.0488816 20.3641439,85.7519239 20.9156742,84.3930551 L22.4556439,80.718077 L18.8228258,81.2848015 C15.5985985,81.8293015 12.4053864,82.5690595 9.25937121,83.4961382 C7.70187121,83.9930143 6.13762879,84.4375041 4.59631061,85.0105784 C3.05634091,85.5868277 1.51637121,86.1614895 0.000674242424,86.8567985 C1.64852273,86.9187096 3.29502273,86.9091848 4.94287121,86.8567985 C6.5907197,86.8044122 8.17923485,86.6742402 9.7947197,86.5789924 C11.7392348,86.4218335 13.6756591,86.2297504 15.5608409,86.02973 C14.8286136,87.6330682 14.1206591,89.2427563 13.4113561,90.8619691 L11.4007652,95.5195872 L15.9653864,93.9432359 C19.688553,92.6558029 23.3793561,91.2635974 27.0769015,89.7570945 C28.9108409,89.0078117 30.7407348,88.2251921 32.5638864,87.4060609 C34.3843409,86.5885172 36.1967045,85.7423991 38.0090682,84.7946834 C36.0133106,84.9026309 34.0256439,85.1280507 32.0528106,85.464593 C30.0826742,85.7836732 28.1233258,86.1694268 26.1801591,86.6218539" id="Fill-65" fill="#5635DC"></path>
                </g>
            </g>
        </g>
    </g>
</svg>